<svg width="93" height="92" viewBox="0 0 93 92" fill="none" xmlns="http://www.w3.org/2000/svg">
<path d="M75.4617 45.1712L75.4534 46.2932L76.5274 46.6181C81.8037 48.2141 85.6441 53.1186 85.6441 58.918C85.6441 66.0143 79.896 71.7651 72.8077 71.7651H39.9374C31.5641 71.7651 24.7762 64.9772 24.7762 56.6039C24.7762 48.8965 30.5287 42.5303 37.9739 41.5685L38.9825 41.4383L39.2348 40.4531C41.2703 32.5058 48.4819 26.6328 57.0614 26.6328C67.2239 26.6328 75.4622 34.8711 75.4622 45.0336C75.4622 45.0559 75.4622 45.0782 75.4621 45.1004C75.462 45.124 75.4619 45.1476 75.4617 45.1712Z" stroke="black" stroke-width="3"/>
<path d="M38.1058 21.7349C30.6269 21.7349 24.3362 26.8545 22.5611 33.7848L22.0565 35.7551L20.0393 36.0157C13.6842 36.8367 8.773 42.2737 8.773 48.8531C8.773 56.0024 14.5686 61.7981 21.7179 61.7981H25.6201C25.9484 62.2554 26.7033 63.4957 27.0971 64.7981H21.7179C12.9118 64.7981 5.773 57.6593 5.773 48.8531C5.773 40.7461 11.8233 34.0521 19.6549 33.0404C21.7617 24.8151 29.2237 18.7349 38.1058 18.7349C44.4706 18.7349 50.1063 21.8572 53.5646 26.6536L50.7775 27.9363C47.8417 24.1626 43.2573 21.7349 38.1058 21.7349Z" fill="black"/>
</svg>
