<svg width="92" height="92" viewBox="0 0 92 92" fill="none" xmlns="http://www.w3.org/2000/svg">
<g clip-path="url(#clip0_2_108)">
<path d="M77.6983 53.0155L77.69 54.1376L78.764 54.4624C84.5138 56.2016 88.6989 61.5462 88.6989 67.866C88.6989 75.5991 82.435 81.866 74.7105 81.866H39.1989C30.0862 81.866 22.6989 74.4787 22.6989 65.366C22.6989 56.9779 28.9594 50.0497 37.0622 49.0029L38.0707 48.8726L38.3231 47.8875C40.5355 39.2496 48.3736 32.866 57.6989 32.866C68.7446 32.866 77.6989 41.8203 77.6989 52.866C77.6989 52.9159 77.6987 52.9658 77.6983 53.0155Z" stroke="black" stroke-width="3"/>
<rect x="30.5" y="9" width="3" height="8.71068" rx="1.5" fill="black"/>
<rect x="1.00016" y="41.4998" width="3" height="8.71068" rx="1.5" transform="rotate(-90 1.00016 41.4998)" fill="black"/>
<rect x="17.7991" y="67.5965" width="3" height="8.71068" rx="1.5" transform="rotate(-150 17.7991 67.5965)" fill="black"/>
<rect x="44.4436" y="21.4469" width="3" height="8.71068" rx="1.5" transform="rotate(-150 44.4436 21.4469)" fill="black"/>
<rect x="5.90335" y="56.7988" width="3" height="8.71068" rx="1.5" transform="rotate(-120 5.90335 56.7988)" fill="black"/>
<rect x="52.053" y="30.1543" width="3" height="8.71068" rx="1.5" transform="rotate(-120 52.053 30.1543)" fill="black"/>
<rect x="4.40336" y="25.799" width="3" height="8.71068" rx="1.5" transform="rotate(-60 4.40336 25.799)" fill="black"/>
<rect x="15.201" y="13.9032" width="3" height="8.71068" rx="1.5" transform="rotate(-30 15.201 13.9032)" fill="black"/>
<path d="M32 27C24.8203 27 19 32.8203 19 40C19 45.9598 23.0105 50.9829 28.4799 52.5178L26.3133 54.9599C20.2842 52.6668 16 46.8337 16 40C16 31.1634 23.1634 24 32 24C39.3419 24 45.5289 28.9451 47.4117 35.6863L44.7671 37.5373C43.6162 31.5352 38.3377 27 32 27Z" fill="black"/>
</g>
<defs>
<clipPath id="clip0_2_108">
<rect width="92" height="92" fill="white"/>
</clipPath>
</defs>
</svg>
