<svg width="92" height="92" viewBox="0 0 92 92" fill="none" xmlns="http://www.w3.org/2000/svg">
<circle cx="46" cy="46" r="16.0484" stroke="black" stroke-width="3"/>
<rect x="44.3548" y="12" width="3.29032" height="9.55365" rx="1.64516" fill="black"/>
<rect x="44.3548" y="70.446" width="3.29032" height="9.55365" rx="1.64516" fill="black"/>
<rect x="12.0002" y="47.645" width="3.29032" height="9.55365" rx="1.64516" transform="rotate(-90 12.0002 47.645)" fill="black"/>
<rect x="70.4462" y="47.645" width="3.29032" height="9.55365" rx="1.64516" transform="rotate(-90 70.4462 47.645)" fill="black"/>
<rect x="30.4248" y="76.2671" width="3.29032" height="9.55365" rx="1.64516" transform="rotate(-150 30.4248 76.2671)" fill="black"/>
<rect x="59.6478" y="25.6514" width="3.29032" height="9.55365" rx="1.64516" transform="rotate(-150 59.6478 25.6514)" fill="black"/>
<rect x="17.3779" y="64.4245" width="3.29032" height="9.55365" rx="1.64516" transform="rotate(-120 17.3779 64.4245)" fill="black"/>
<rect x="67.9936" y="35.2015" width="3.29032" height="9.55365" rx="1.64516" transform="rotate(-120 67.9936 35.2015)" fill="black"/>
<rect x="15.7327" y="30.4247" width="3.29032" height="9.55365" rx="1.64516" transform="rotate(-60 15.7327 30.4247)" fill="black"/>
<rect x="66.3484" y="59.6477" width="3.29032" height="9.55365" rx="1.64516" transform="rotate(-60 66.3484 59.6477)" fill="black"/>
<rect x="27.5753" y="17.3777" width="3.29032" height="9.55365" rx="1.64516" transform="rotate(-30 27.5753 17.3777)" fill="black"/>
<rect x="56.7983" y="67.9934" width="3.29032" height="9.55365" rx="1.64516" transform="rotate(-30 56.7983 67.9934)" fill="black"/>
</svg>
